<?xml version="1.0" encoding="UTF-8" standalone="no"?><!DOCTYPE svg PUBLIC "-//W3C//DTD SVG 1.1//EN" "http://www.w3.org/Graphics/SVG/1.1/DTD/svg11.dtd"><svg width="100%" height="100%" viewBox="0 0 250 250" version="1.1" xmlns="http://www.w3.org/2000/svg" xmlns:xlink="http://www.w3.org/1999/xlink" xml:space="preserve" xmlns:serif="http://www.serif.com/" style="fill-rule:evenodd;clip-rule:evenodd;stroke-linejoin:round;stroke-miterlimit:2;"><path d="M126.726,42.102c-0,0 -10.886,-2.387 -27.548,10.051c-5.587,4.17 -10.492,10.895 -17.636,18.747c-6.296,6.922 -11.069,12.02 -14.52,16.318c-12.696,15.809 -11.405,16.658 -11.405,25.697c-0,11.497 12.18,33.579 59.923,39.539c47.744,5.96 47.786,9.289 66.259,-4.033c16.115,-11.62 5.972,-35.961 1.138,-47.396c-4.834,-11.434 -12.007,-57.72 -56.211,-58.923Z" style="fill:#ca6519;"/><path d="M126.972,39.858l0.005,0.001c22.942,0.69 36.302,13.025 44.545,26.707c7.994,13.268 11.048,27.815 13.487,33.583c2.989,7.07 7.892,18.941 7.794,29.882c-0.07,7.784 -2.6,15.104 -9.688,20.215c-11.676,8.42 -16.382,10.462 -29.126,9.443c-8.086,-0.647 -19.581,-2.612 -38.728,-5.002c-49.658,-6.2 -61.894,-29.814 -61.894,-41.772c-0,-3.831 -0.184,-6.273 0.414,-8.897c0.889,-3.896 3.497,-8.26 11.486,-18.209c3.474,-4.325 8.274,-9.457 14.611,-16.423c7.262,-7.983 12.274,-14.797 17.954,-19.037c16.252,-12.132 27.409,-10.794 29.14,-10.491Zm-0.728,4.442c-0,0 -10.11,-1.997 -25.72,9.656c-5.494,4.101 -10.293,10.737 -17.318,18.459c-6.256,6.877 -11,11.941 -14.43,16.212c-7.246,9.022 -9.802,12.858 -10.607,16.391c-0.531,2.329 -0.302,4.498 -0.302,7.897c-0,4.214 1.856,9.95 6.799,15.702c7.863,9.149 23.316,18.129 51.153,21.604c19.048,2.378 30.484,4.339 38.528,4.982c11.453,0.916 15.643,-1.04 26.136,-8.607c7.326,-5.282 8.532,-13.509 7.508,-21.662c-1.098,-8.744 -4.77,-17.458 -7.127,-23.032c-1.928,-4.562 -4.225,-14.686 -9.114,-25.267c-7.052,-15.263 -19.651,-31.592 -45.086,-32.284c-0.141,-0.003 -0.282,-0.021 -0.42,-0.051Z" style="fill:#463300;"/><path d="M75.273,125.848c-1.172,0.412 -2.457,-0.206 -2.868,-1.378c-0.412,-1.171 0.206,-2.456 1.378,-2.868c-0,0 40.317,-14.32 91.267,20.797c1.022,0.705 1.28,2.107 0.576,3.129c-0.705,1.023 -2.107,1.281 -3.13,0.576c-48.739,-33.593 -87.223,-20.256 -87.223,-20.256Z" style="fill:#463300;"/><path d="M94.354,121.23c0,-0 -18.641,28.911 -18.641,51.303c-0,22.392 19.778,32.831 41.486,32.831c21.708,0 36.116,-8.883 36.116,-31.265c-0,-22.381 -5.769,-31.703 -2.907,-38.004c-16.731,-9.029 -35.736,-14.554 -56.054,-14.865Z" style="fill:#e8ae58;"/><path d="M94.389,118.98c20.691,0.317 40.048,5.939 57.087,15.135c1.041,0.562 1.47,1.834 0.981,2.911c-0.99,2.179 -0.645,4.778 -0.043,8.349c1.057,6.276 3.151,15.119 3.151,28.724c-0,9.59 -2.539,16.845 -6.991,22.125c-6.608,7.836 -17.569,11.39 -31.375,11.39c-23.005,0 -43.736,-11.351 -43.736,-35.081c-0,-22.912 19.001,-52.522 19.001,-52.522c0.42,-0.653 1.148,-1.043 1.925,-1.031Zm1.193,4.526c-3.282,5.317 -17.619,29.659 -17.619,49.027c-0,21.055 18.824,30.581 39.236,30.581c12.243,0 22.075,-2.842 27.935,-9.791c3.859,-4.578 5.931,-10.909 5.931,-19.224c-0,-13.252 -2.059,-21.864 -3.089,-27.976c-0.611,-3.629 -0.825,-6.489 -0.289,-8.924c-15.667,-8.161 -33.301,-13.2 -52.105,-13.693Z" style="fill:#463300;"/><path d="M101.029,159.651c0.25,-1.216 1.441,-2.001 2.657,-1.751c1.217,0.25 2.001,1.441 1.751,2.657c0,0 -0.535,2.583 1.059,4.649c1.192,1.544 3.51,2.642 7.702,2.642c3.704,-0 6.031,-1.066 7.266,-2.385c0.523,-0.559 0.848,-1.104 0.848,-1.534c-0,-1.242 1.008,-2.25 2.25,-2.25c1.241,0 2.25,1.008 2.25,2.25c-0,2.62 -3.04,8.419 -12.614,8.419c-6.225,-0 -9.495,-2.1 -11.265,-4.394c-2.847,-3.69 -1.904,-8.303 -1.904,-8.303Z" style="fill:#463300;"/><ellipse cx="140.297" cy="72.434" rx="12.197" ry="10.937" style="fill:#e8ae58;"/><path d="M140.297,59.247c8.037,0 14.446,5.98 14.446,13.187c0,7.208 -6.409,13.187 -14.446,13.187c-8.038,0 -14.447,-5.979 -14.447,-13.187c-0,-7.207 6.409,-13.187 14.447,-13.187Zm-0,4.5c-5.427,0 -9.947,3.821 -9.947,8.687c-0,4.866 4.52,8.687 9.947,8.687c5.426,0 9.946,-3.821 9.946,-8.687c0,-4.866 -4.52,-8.687 -9.946,-8.687Z" style="fill:#463300;"/><ellipse cx="113.297" cy="106.094" rx="10.98" ry="9.496" style="fill:#e8ae58;"/><path d="M113.297,94.348c7.386,0 13.23,5.359 13.23,11.746c0,6.388 -5.844,11.747 -13.23,11.747c-7.385,-0 -13.23,-5.359 -13.23,-11.747c0,-6.387 5.845,-11.746 13.23,-11.746Zm0,4.5c-4.736,0 -8.73,3.15 -8.73,7.246c0,4.097 3.994,7.247 8.73,7.247c4.736,-0 8.73,-3.15 8.73,-7.247c0,-4.096 -3.994,-7.246 -8.73,-7.246Z" style="fill:#463300;"/><path d="M180.709,94.546c0,0 -4.914,-1.047 -9.511,-1.047c-4.597,0 -15.498,4.084 -15.498,17.976c0,13.891 13.888,16.534 20.143,16.534c6.256,0 12.006,-1.989 14.155,-6.084c0,-0 -1.018,-4.433 -2.891,-9.931c-2.048,-6.009 -5.02,-13.29 -6.398,-17.448Z" style="fill:#e8ae58;"/><path d="M182.845,93.838c1.377,4.154 4.346,11.428 6.392,17.431c1.915,5.62 2.954,10.152 2.954,10.152c0.121,0.524 0.049,1.073 -0.2,1.549c-2.471,4.709 -8.954,7.289 -16.148,7.289c-7.016,0 -22.393,-3.204 -22.393,-18.784c0,-15.749 12.536,-20.226 17.748,-20.226c4.824,0 9.98,1.097 9.98,1.097c0.781,0.166 1.416,0.734 1.667,1.492Zm-3.841,2.674c-1.678,-0.295 -4.812,-0.763 -7.806,-0.763c-3.982,0 -13.248,3.691 -13.248,15.726c0,12.204 12.397,14.284 17.893,14.284c2.82,0 5.529,-0.432 7.772,-1.341c1.669,-0.677 3.076,-1.608 3.977,-2.868c-0.384,-1.53 -1.276,-4.902 -2.615,-8.83c-1.856,-5.447 -4.471,-11.94 -5.973,-16.208Z" style="fill:#463300;"/><path d="M94.4,56.44l-25.037,27.988c0,-0 19.162,13.601 32.022,-1.192c12.86,-14.793 -7.316,-26.621 -6.985,-26.796Z" style="fill:#e8ae58;"/><path d="M93.174,55.209l0.089,-0.127l0.543,-0.403c0.911,-0.483 2.026,-0.283 2.713,0.467c0.046,0.036 0.099,0.077 0.146,0.112c3.182,2.401 19.399,14.522 6.418,29.455c-14.1,16.219 -34.182,2.217 -34.182,2.217c-0.519,-0.367 -0.859,-0.936 -0.936,-1.567c-0.076,-0.631 0.118,-1.265 0.534,-1.746l24.662,-28.425l0.013,0.017Zm1.516,4.152c-7.188,8.301 -14.493,16.497 -21.939,24.566c4.85,2.669 17.849,8.286 26.936,-2.167c9.028,-10.385 -0.994,-19.302 -4.997,-22.399Z" style="fill:#463300;"/><path d="M134.627,144.668c2.197,0.525 3.349,3.593 2.572,6.849c-0.777,3.256 -3.191,5.473 -5.388,4.949c-2.196,-0.524 -3.349,-3.593 -2.572,-6.849c0.777,-3.255 3.191,-5.473 5.388,-4.949Z" style="fill:#433100;"/><path d="M101.305,140.118c2.844,0.493 4.665,3.712 4.063,7.184c-0.601,3.473 -3.398,5.892 -6.242,5.4c-2.843,-0.492 -4.664,-3.711 -4.063,-7.184c0.602,-3.473 3.399,-5.892 6.242,-5.4Z" style="fill:#433100;"/><ellipse cx="88.825" cy="158.269" rx="6.714" ry="4.956" style="fill:#eb8f46;"/><path d="M140.277,160.363c3.913,0.854 6.644,3.59 6.095,6.105c-0.549,2.515 -4.172,3.864 -8.085,3.009c-3.913,-0.854 -6.645,-3.59 -6.095,-6.105c0.549,-2.515 4.172,-3.864 8.085,-3.009Z" style="fill:#eb8f46;"/></svg>