<?xml version="1.0" encoding="UTF-8" standalone="no"?><!DOCTYPE svg PUBLIC "-//W3C//DTD SVG 1.1//EN" "http://www.w3.org/Graphics/SVG/1.1/DTD/svg11.dtd"><svg width="100%" height="100%" viewBox="0 0 225 225" version="1.1" xmlns="http://www.w3.org/2000/svg" xmlns:xlink="http://www.w3.org/1999/xlink" xml:space="preserve" xmlns:serif="http://www.serif.com/" style="fill-rule:evenodd;clip-rule:evenodd;stroke-linejoin:round;stroke-miterlimit:2;"><g><path d="M96.705,175.45c-2.48,5.525 -7.417,26.781 -3.499,32.088c3.918,5.308 12.639,6.314 19.353,6.314c6.714,-0 16.605,0.258 18.469,-4.914c1.864,-5.173 -0.851,-29.693 -2.525,-33.497c-2.354,-0.8 -4.873,-2.263 -7.758,-3.663c-4.399,-2.135 -8.06,-4.796 -8.06,-4.796c0,-0 -4.324,2.775 -8.913,5.231c-3.196,1.71 -5.29,2.528 -7.067,3.237Z" style="fill:#964e05;"/><path d="M112.67,167.02c46.613,29.731 25.001,-15.985 33.982,-6.242c8.982,9.742 28.035,15.479 37.727,9.765c9.693,-5.715 0.628,-15.488 0.628,-15.488l-29.551,-38.898c-0,0 15.19,12.098 22.027,6.493c6.837,-5.606 -0.58,-12.86 -0.58,-12.86l-33.497,-39.232c10.074,2.687 14.446,9.062 19.043,4.062c4.243,-4.614 -2.55,-11.573 -2.55,-11.573l-46.743,-51.369l-1.808,0.007l-46.744,51.369c0,-0 -6.792,6.959 -2.55,11.573c4.597,5 8.97,-1.375 19.044,-4.062l-33.497,39.232c-0,-0 -7.418,7.254 -0.581,12.859c6.837,5.606 22.028,-6.492 22.028,-6.492l-29.552,38.898c0,-0 -9.064,9.773 0.628,15.488c9.693,5.714 28.746,-0.023 37.727,-9.766c8.982,-9.742 -11.794,35.967 34.819,6.236Z" style="fill:#657f22;"/><path d="M92.05,179.899c-0.236,0.043 -0.468,0.081 -0.694,0.114c-4.185,0.617 -7.073,-0.218 -9.102,-1.666c-3.284,-2.342 -4.466,-6.653 -4.687,-10.856c-0.04,-0.759 -0.049,-1.509 -0.047,-2.224c-5.855,5.068 -14.171,8.82 -22.041,10.082c-6.39,1.024 -12.476,0.38 -16.878,-2.215c-3.115,-1.837 -4.708,-4.053 -5.444,-6.259c-1.091,-3.268 -0.248,-6.68 1.085,-9.348c1.127,-2.255 2.541,-3.927 2.94,-4.378l20.673,-27.212c-0.788,0.279 -1.579,0.519 -2.362,0.706c-3.909,0.938 -7.628,0.586 -10.375,-1.667c-2.29,-1.877 -3.376,-3.926 -3.792,-5.897c-0.609,-2.882 0.279,-5.698 1.488,-7.842c1.019,-1.81 2.218,-3.104 2.576,-3.471l25.184,-29.496c-0.641,0.291 -1.248,0.539 -1.831,0.722c-3.301,1.04 -6.069,0.742 -8.897,-2.335c-2.547,-2.77 -2.602,-6.077 -1.561,-9.079c1.156,-3.338 3.75,-6.172 4.109,-6.553l46.735,-51.359c0.566,-0.622 1.367,-0.977 2.207,-0.981l1.808,-0.007c0.849,-0.003 1.659,0.354 2.231,0.981l46.713,51.337c0.362,0.384 2.97,3.225 4.131,6.575c1.04,3.002 0.985,6.309 -1.561,9.08c-2.829,3.076 -5.596,3.374 -8.898,2.334c-0.582,-0.183 -1.19,-0.431 -1.831,-0.722l25.179,29.49c0.361,0.371 1.562,1.665 2.582,3.477c1.208,2.145 2.096,4.96 1.488,7.842c-0.417,1.971 -1.502,4.02 -3.793,5.898c-2.746,2.252 -6.465,2.604 -10.375,1.666c-0.782,-0.187 -1.573,-0.427 -2.362,-0.706l20.67,27.208c0.402,0.455 1.817,2.127 2.943,4.382c1.333,2.668 2.177,6.08 1.086,9.348c-0.737,2.206 -2.329,4.422 -5.444,6.259c-4.402,2.595 -10.488,3.239 -16.879,2.215c-7.761,-1.244 -15.957,-4.911 -21.798,-9.874c0.017,0.626 0.024,1.274 0.008,1.93c-0.098,4.226 -1.171,8.561 -4.352,10.916c-1.977,1.464 -4.826,2.321 -9.003,1.698c-0.419,-0.063 -0.855,-0.141 -1.308,-0.237c0.76,4.365 1.496,10.446 1.849,16.043c0.394,6.23 0.245,11.874 -0.57,14.137c-1.055,2.926 -3.745,4.861 -7.419,5.845c-4.128,1.105 -9.604,1.052 -13.872,1.052c-4.349,-0 -9.474,-0.424 -13.795,-1.975c-3.252,-1.167 -6.061,-2.969 -7.971,-5.557c-1.451,-1.964 -2.166,-5.652 -2.026,-10.103c0.191,-6.115 1.743,-13.818 3.283,-19.318Zm34.719,-8.44c2.041,0.923 3.851,1.597 5.456,2.054c3.332,0.949 5.513,0.998 6.931,0.087c1.208,-0.777 1.611,-2.207 1.855,-3.685c0.354,-2.14 0.23,-4.468 0.153,-6.344c-0.094,-2.288 0.02,-4.112 0.378,-4.965l0.686,-1.086l0.897,-0.709l1.17,-0.389l0.84,-0.017l0.698,0.138c0.661,0.197 1.716,0.781 3.025,2.201c4.976,5.397 13.32,9.424 21.116,10.673c4.867,0.781 9.529,0.518 12.882,-1.459c1.538,-0.907 2.436,-1.9 2.8,-2.99c0.559,-1.676 -0.078,-3.398 -0.762,-4.767c-0.913,-1.826 -2.086,-3.106 -2.086,-3.106c-0.067,-0.072 -0.13,-0.147 -0.19,-0.225l-29.551,-38.898c-0.915,-1.205 -0.79,-2.902 0.292,-3.96c1.082,-1.058 2.782,-1.144 3.966,-0.201c-0,-0 5.088,4.062 10.538,6.179c1.617,0.628 3.264,1.091 4.796,1.138c1.09,0.034 2.115,-0.137 2.922,-0.798c0.992,-0.813 1.546,-1.645 1.726,-2.498c0.286,-1.356 -0.277,-2.649 -0.845,-3.658c-0.756,-1.343 -1.657,-2.24 -1.657,-2.24c-0.064,-0.062 -0.125,-0.128 -0.184,-0.196l-33.497,-39.232c-0.853,-0.999 -0.957,-2.437 -0.256,-3.548c0.7,-1.111 2.042,-1.637 3.311,-1.299c5.227,1.395 8.986,3.719 12.024,5.072c1.573,0.702 2.802,1.202 4.038,-0.141c0.848,-0.923 0.655,-2.054 0.309,-3.055c-0.831,-2.398 -2.798,-4.392 -2.798,-4.392c-0.024,-0.026 -0.048,-0.051 -0.072,-0.077l-45.425,-49.92l-45.432,49.927c-0.023,0.026 -0.048,0.051 -0.072,0.076c0,0 -1.966,1.995 -2.797,4.393c-0.347,1.001 -0.54,2.131 0.309,3.054c1.235,1.344 2.464,0.844 4.038,0.142c3.037,-1.354 6.797,-3.678 12.024,-5.072c1.269,-0.339 2.61,0.188 3.311,1.299c0.7,1.111 0.596,2.549 -0.257,3.548l-33.497,39.232c-0.058,0.068 -0.119,0.134 -0.184,0.196c0,0 -0.9,0.897 -1.657,2.24c-0.568,1.009 -1.131,2.302 -0.845,3.658c0.181,0.853 0.735,1.684 1.726,2.498c0.807,0.661 1.832,0.832 2.922,0.798c1.532,-0.047 3.179,-0.51 4.797,-1.139c5.449,-2.117 10.538,-6.178 10.538,-6.178c1.183,-0.943 2.883,-0.857 3.966,0.201c1.082,1.057 1.207,2.755 0.291,3.96l-29.551,38.898c-0.059,0.078 -0.122,0.153 -0.189,0.225c-0,-0 -1.174,1.279 -2.086,3.106c-0.684,1.369 -1.322,3.091 -0.762,4.767c0.364,1.09 1.262,2.083 2.8,2.99c3.352,1.977 8.015,2.239 12.882,1.459c7.796,-1.249 16.14,-5.276 21.116,-10.673c1.313,-1.424 2.38,-2.01 3.063,-2.207l1.224,-0.145l0.717,0.114l0.699,0.271l0.702,0.482l0.502,0.544l0.684,1.426c0.247,0.88 0.306,2.403 0.286,4.251c-0.021,1.875 -0.08,4.203 0.34,6.343c0.295,1.504 0.773,2.956 2.046,3.747c1.486,0.922 3.739,0.896 7.145,-0.065c0.741,-0.209 1.524,-0.464 2.352,-0.766c0.061,-0.03 0.124,-0.057 0.187,-0.083c1.7,-0.678 3.705,-1.459 6.764,-3.096c4.483,-2.399 8.708,-5.11 8.708,-5.11c1.041,-0.668 2.385,-0.629 3.385,0.098c-0,0 0.219,0.159 0.612,0.429c2.361,1.488 4.533,2.771 6.532,3.868c0.153,0.077 0.306,0.152 0.461,0.227c1.689,0.82 3.245,1.669 4.714,2.38Zm-27.772,6.315c-1.663,4.445 -4.003,14.299 -4.233,21.631c-0.087,2.768 -0.046,5.13 0.856,6.352c1.075,1.456 2.629,2.462 4.405,3.187l1.933,-32.465c-0.322,0.15 -0.631,0.291 -0.928,0.423c-0.701,0.316 -1.379,0.606 -2.033,0.872Zm9.164,-4.527l-2.214,37.193c2.255,0.315 4.537,0.412 6.612,0.412c2.178,-0 4.712,0.044 7.169,-0.105l-2.506,-23.909c-0.173,-1.647 1.024,-3.124 2.671,-3.296c1.646,-0.173 3.123,1.024 3.296,2.671l2.47,23.569c1.194,-0.37 2.185,-0.858 2.546,-1.861c0.676,-1.876 0.554,-6.561 0.227,-11.724c-0.45,-7.131 -1.438,-15.149 -2.318,-18.461c-0.608,-0.255 -1.229,-0.542 -1.865,-0.85c-1.601,-0.725 -3.328,-1.585 -5.189,-2.593c-2.602,-1.29 -4.927,-2.73 -6.419,-3.71c-1.567,0.973 -3.059,1.859 -4.48,2.664Zm-12.501,-51.99c-0.635,-1.53 0.091,-3.287 1.62,-3.922c1.53,-0.634 3.287,0.092 3.922,1.621c-0,-0 3.022,7.128 11.321,7.128c8.224,-0 11.035,-6.499 11.035,-6.499c0.631,-1.531 2.386,-2.261 3.917,-1.63c1.531,0.631 2.261,2.386 1.631,3.917c-0,-0 -4.077,10.212 -16.583,10.212c-12.43,-0 -16.863,-10.827 -16.863,-10.827Zm-8.453,-11.377c-0.26,1.635 -1.799,2.751 -3.434,2.491c-1.635,-0.26 -2.751,-1.799 -2.491,-3.434c-0,-0 0.54,-3.378 2.558,-6.08c1.562,-2.091 3.91,-3.789 7.324,-3.789c3.571,0 5.882,2.039 7.28,4.623c1.665,3.074 1.847,6.913 1.847,6.913c0.073,1.654 -1.212,3.056 -2.866,3.128c-1.654,0.072 -3.056,-1.212 -3.128,-2.866c0,0 -0.079,-1.704 -0.72,-3.41c-0.407,-1.084 -0.974,-2.388 -2.413,-2.388c-1.57,0 -2.437,1.116 -2.989,2.118c-0.743,1.349 -0.968,2.694 -0.968,2.694Zm43.704,0.405c-0.06,1.655 -1.453,2.949 -3.107,2.889c-1.655,-0.06 -2.949,-1.453 -2.889,-3.107c0,-0 0.127,-3.418 1.803,-6.345c1.297,-2.265 3.423,-4.234 6.812,-4.647c3.545,-0.433 6.085,1.311 7.786,3.706c2.025,2.851 2.67,6.639 2.67,6.639c0.273,1.634 -0.833,3.18 -2.466,3.452c-1.633,0.273 -3.18,-0.833 -3.452,-2.466c0,0 -0.285,-1.682 -1.127,-3.297c-0.536,-1.027 -1.257,-2.253 -2.685,-2.079c-1.558,0.19 -2.284,1.403 -2.71,2.464c-0.575,1.429 -0.635,2.791 -0.635,2.791Z" style="fill:#483300;"/></g></svg>