<?xml version="1.0" encoding="UTF-8" standalone="no"?><!DOCTYPE svg PUBLIC "-//W3C//DTD SVG 1.1//EN" "http://www.w3.org/Graphics/SVG/1.1/DTD/svg11.dtd"><svg width="100%" height="100%" viewBox="0 0 250 250" version="1.1" xmlns="http://www.w3.org/2000/svg" xmlns:xlink="http://www.w3.org/1999/xlink" xml:space="preserve" xmlns:serif="http://www.serif.com/" style="fill-rule:evenodd;clip-rule:evenodd;stroke-linejoin:round;stroke-miterlimit:2;"><path d="M117.049,199.156c0,-0 -1.334,12.814 -4.229,21.63c-1.184,3.608 -2.203,6.251 0.593,7.464c2.796,1.213 9.218,4.136 11.611,-4.059c2.394,-8.194 4.462,-14.355 3.989,-25.068l-11.964,0.033Z" style="fill:#964f06;"/><path d="M124.267,20.238c-0,0 -23.947,15.218 -21.47,33.759c1.635,12.237 -0.214,11.304 -5.546,7.914c-5.332,-3.389 -9.313,-6.888 -12.086,-6.888c-2.772,0 -6.517,2.378 -6.517,15.969c0,13.591 7.489,25.114 4.882,27.306c-2.606,2.192 -13.176,-8.039 -18.318,-8.039c-5.143,-0 -8.176,7.013 -8.176,20.914c0,13.901 4.148,19.235 8.958,25.082c4.811,5.847 10.048,10.295 7.583,11.989c-2.465,1.695 -10.498,0 -13.958,0c-3.46,0 -4.123,0.559 -4.123,5.333c0,4.775 2.535,19.453 19.148,31.178c16.612,11.725 25.665,14.414 49.149,14.414c23.484,-0 41.565,-4.835 50.713,-13.186c9.147,-8.35 19.998,-22.469 19.998,-31.13c-0,-8.662 -4.025,-7.122 -7.13,-6.873c-3.104,0.249 -8.91,2.363 -11.92,-0.467c-3.01,-2.83 16.706,-14.242 16.943,-34.784c0.238,-20.542 -4.715,-21.164 -7.843,-22.455c-3.128,-1.291 -14.289,10.606 -17.797,8.693c-3.508,-1.913 4.265,-16.031 4.265,-27.01c0,-10.978 -3.483,-16.436 -7.82,-16.436c-4.337,-0 -13.486,10.543 -17.373,7.961c-3.887,-2.582 4.197,-14.99 -7.083,-29.482c-11.28,-14.492 -11.257,-13.248 -14.479,-13.762Z" style="fill:#c7630d;"/><path d="M114.681,201.246c-17.68,-0.762 -26.612,-4.262 -41.335,-14.653c-17.55,-12.386 -20.1,-27.972 -20.1,-33.016c0,-3.173 0.473,-4.896 1.268,-5.875c0.928,-1.142 2.422,-1.708 5.105,-1.708c2.096,0 5.854,0.611 9.063,0.734c0.925,0.035 1.798,0.029 2.547,-0.065c0.157,-0.02 0.307,-0.039 0.447,-0.062c-0.157,-0.29 -0.363,-0.642 -0.57,-0.926c-0.665,-0.911 -1.561,-1.943 -2.57,-3.079c-1.317,-1.485 -2.817,-3.135 -4.279,-4.912c-5.085,-6.18 -9.471,-11.817 -9.471,-26.511c0,-8.894 1.274,-15.125 3.39,-18.702c1.805,-3.051 4.229,-4.462 7.036,-4.462c1.513,-0 3.435,0.645 5.488,1.706c2.553,1.319 5.399,3.266 7.899,4.774c1,0.602 1.936,1.131 2.763,1.491c0.114,0.05 0.241,0.097 0.368,0.14c-0.058,-0.462 -0.149,-1.043 -0.281,-1.549c-1.34,-5.117 -5.051,-13.834 -5.051,-23.579c0,-7.374 1.113,-11.69 2.505,-14.179c1.846,-3.3 4.267,-4.04 6.262,-4.04c1.423,0 3.129,0.621 5.06,1.761c2.275,1.343 5.01,3.429 8.233,5.478c1.025,0.652 1.888,1.22 2.606,1.567c0.028,-0.228 0.051,-0.478 0.056,-0.712c0.029,-1.504 -0.162,-3.64 -0.553,-6.572c-1.072,-8.023 2.336,-15.501 6.924,-21.551c6.61,-8.714 15.569,-14.405 15.569,-14.405c0.463,-0.294 1.018,-0.409 1.561,-0.323c1.162,0.186 1.966,0.22 2.898,0.593c0.914,0.366 1.972,1.031 3.51,2.573c1.863,1.866 4.665,5.234 9.493,11.436c7.243,9.306 7.062,17.799 6.627,23.71c-0.126,1.725 -0.286,3.198 -0.22,4.361c0.014,0.241 0.037,0.464 0.082,0.665c0.022,0.099 -0.011,0.205 0.063,0.254c0.264,0.176 0.596,0.005 0.976,-0.112c0.954,-0.294 2.009,-0.893 3.115,-1.598c2.347,-1.495 4.856,-3.466 7.051,-4.804c1.887,-1.15 3.637,-1.823 4.986,-1.823c2.395,-0 4.65,1.119 6.436,3.536c2.132,2.886 3.634,7.911 3.634,15.15c0,7.83 -3.83,17.239 -4.933,22.841c-0.135,0.684 -0.174,1.496 -0.184,2.008c0.204,-0.054 0.434,-0.124 0.618,-0.203c1.663,-0.708 3.694,-2.142 5.721,-3.583c2.702,-1.921 5.398,-3.851 7.333,-4.619c1.463,-0.58 2.703,-0.571 3.585,-0.206c1.519,0.627 3.349,1.195 5.032,3.162c2.24,2.617 4.357,8.12 4.203,21.398c-0.173,15.036 -10.194,25.459 -15.191,31.336c-0.658,0.774 -1.218,1.458 -1.627,2.055c-0.045,0.065 -0.09,0.136 -0.134,0.208c0.99,0.481 2.242,0.421 3.475,0.306c2.226,-0.206 4.465,-0.798 6.024,-0.923c1.246,-0.1 2.628,-0.356 3.883,-0.231c1.25,0.125 2.401,0.558 3.372,1.493c1.235,1.19 2.305,3.45 2.305,7.854c-0,3.779 -1.809,8.542 -4.721,13.443c-4.111,6.921 -10.373,14.203 -16.01,19.349c-8.45,7.714 -24.257,12.663 -44.87,13.609c0.17,9.752 -1.665,15.683 -3.969,23.568c-0.918,3.143 -2.388,4.948 -3.969,5.976c-1.599,1.039 -3.378,1.327 -5.12,1.177c-2.155,-0.186 -4.236,-1.079 -5.577,-1.661c-2.461,-1.067 -3.236,-2.769 -3.142,-4.993c0.06,-1.426 0.638,-3.201 1.307,-5.237c2.217,-6.752 3.531,-15.397 3.998,-18.838Zm12.242,-4.356c21.24,-0.396 37.611,-4.85 46.066,-12.568c5.34,-4.875 11.281,-11.767 15.176,-18.324c2.426,-4.084 4.089,-7.996 4.089,-11.145c-0,-2.532 -0.217,-3.929 -0.927,-4.612c-0.398,-0.384 -0.95,-0.293 -1.485,-0.259c-0.77,0.048 -1.555,0.182 -2.288,0.24c-1.903,0.153 -4.802,0.977 -7.479,0.999c-2.352,0.02 -4.541,-0.545 -6.162,-2.069l-0.484,-0.571l-0.348,-0.691l-0.168,-0.728l-0.008,-0.683c0.066,-0.787 0.467,-1.812 1.288,-2.987c1.42,-2.031 4.311,-4.964 7.287,-8.81c4.17,-5.388 8.56,-12.682 8.668,-21.979c0.131,-11.376 -1.204,-16.178 -3.123,-18.42c-1.001,-1.17 -2.142,-1.475 -3.084,-1.832c-0.244,0.09 -1.103,0.414 -1.692,0.752c-2.149,1.231 -4.837,3.321 -7.353,5.023c-2.29,1.548 -4.49,2.761 -6.136,3.087c-1.212,0.24 -2.25,0.082 -3.08,-0.371l-0.736,-0.527l-0.571,-0.67l-0.385,-0.728c-0.093,-0.225 -0.17,-0.469 -0.231,-0.73c-0.247,-1.061 -0.188,-2.554 0.167,-4.358c1.061,-5.394 4.848,-14.432 4.848,-21.972c0,-5.025 -0.739,-8.797 -2.033,-11.303c-0.935,-1.813 -2.101,-2.883 -3.537,-2.883c-0.734,-0 -1.617,0.54 -2.644,1.166c-2.172,1.324 -4.652,3.276 -6.975,4.756c-1.832,1.168 -3.603,2.042 -5.104,2.328c-1.491,0.284 -2.804,0.06 -3.895,-0.664c-0.9,-0.598 -1.505,-1.443 -1.844,-2.562c-0.325,-1.07 -0.374,-2.493 -0.269,-4.218c0.312,-5.106 1.903,-13.684 -5.5,-23.195c-4.435,-5.697 -7.086,-8.923 -8.881,-10.771c-1.628,-1.677 -2.349,-1.905 -3.28,-2.032c-2.083,1.424 -8.656,6.191 -13.733,12.885c-3.894,5.134 -6.96,11.425 -6.05,18.235c0.62,4.64 0.723,7.535 0.418,9.177c-0.234,1.263 -0.725,2.065 -1.264,2.574l-0.673,0.494l-0.766,0.309l-0.757,0.116l-0.692,-0.028c-1.218,-0.15 -3.004,-1.104 -5.249,-2.531c-3.175,-2.018 -5.866,-4.078 -8.107,-5.401c-1.079,-0.637 -1.976,-1.136 -2.772,-1.136c-0.779,0 -1.614,0.448 -2.334,1.737c-1.174,2.098 -1.933,5.766 -1.933,11.982c0,9.283 3.628,17.566 4.904,22.44c0.421,1.61 0.598,2.936 0.5,3.912c-0.03,0.292 -0.081,0.563 -0.151,0.813l-0.339,0.84l-0.362,0.542l-0.471,0.481l-0.581,0.395l-0.621,0.261l-0.91,0.169c-0.262,0.019 -0.541,0.013 -0.835,-0.018c-0.991,-0.106 -2.261,-0.565 -3.677,-1.304c-2.609,-1.361 -5.92,-3.718 -8.932,-5.387c-1.6,-0.887 -3.058,-1.627 -4.211,-1.627c-1.768,-0 -2.965,1.432 -3.928,3.832c-1.326,3.303 -1.998,8.256 -1.998,14.832c0,13.109 3.909,18.139 8.446,23.652c3.529,4.29 7.216,7.912 8.261,10.278c0.273,0.618 0.417,1.192 0.454,1.71l-0.01,0.673l-0.145,0.706l-0.576,1.098l-0.864,0.808c-1.008,0.693 -2.669,1.094 -4.668,1.143c-3.443,0.083 -8.13,-0.747 -10.565,-0.747c-0.465,0 -0.87,0.009 -1.222,0.046c-0.132,0.014 -0.302,0.046 -0.401,0.067c-0.038,0.126 -0.103,0.357 -0.13,0.542c-0.094,0.625 -0.12,1.42 -0.12,2.428c0,4.505 2.52,18.277 18.195,29.34c15.855,11.189 24.644,13.897 46.526,13.999c-0.016,-0.107 -0.024,-0.217 -0.024,-0.328l0,-15.542l-31.593,-21.935c-1.02,-0.708 -1.274,-2.111 -0.565,-3.131c0.708,-1.021 2.111,-1.274 3.131,-0.565l29.027,20.153l0,-74.376l-20.874,-17.951c-0.941,-0.81 -1.049,-2.231 -0.239,-3.173c0.81,-0.941 2.232,-1.048 3.173,-0.239l17.94,15.428l0,-42.007c0,-1.242 1.009,-2.25 2.25,-2.25c1.242,0 2.25,1.008 2.25,2.25l0,41.818l18.796,-15.324c0.963,-0.784 2.381,-0.64 3.166,0.323c0.785,0.962 0.64,2.381 -0.322,3.165l-21.64,17.642l0,74.78l29.544,-20.625c1.019,-0.711 2.422,-0.461 3.133,0.557c0.711,1.018 0.462,2.422 -0.557,3.133l-32.12,22.423l0,15.446c0,0.102 -0.007,0.203 -0.02,0.302Zm-7.773,4.49c-0.524,3.777 -1.942,13.255 -4.192,20.108c-0.434,1.322 -0.856,2.499 -1.028,3.51c-0.062,0.37 -0.173,0.691 -0.015,0.942c0.073,0.117 0.22,0.17 0.394,0.246c0.862,0.374 2.11,0.947 3.466,1.206c0.988,0.188 2.062,0.235 2.988,-0.368c0.893,-0.58 1.583,-1.688 2.102,-3.463c2.147,-7.352 4.011,-13.158 3.902,-22.167l-0.078,-0c-0.956,0.017 -1.922,0.025 -2.896,0.025c-1.612,-0 -3.157,-0.012 -4.643,-0.039Z" style="fill:#463300;"/><path d="M139.227,139.722c0.095,-1.238 1.177,-2.166 2.415,-2.072c1.238,0.095 2.167,1.177 2.072,2.415c0,-0 -0.293,4.789 -4.839,8.588c-2.775,2.32 -7.226,4.344 -14.442,4.344c-7.275,0 -11.653,-2.168 -14.328,-4.643c-4.332,-4.009 -4.392,-9.047 -4.392,-9.047c-0.028,-1.242 0.957,-2.272 2.199,-2.301c1.241,-0.028 2.272,0.957 2.3,2.199c0,-0 0.129,3.236 2.949,5.846c2.094,1.937 5.579,3.446 11.272,3.446c5.75,0 9.345,-1.448 11.556,-3.297c2.935,-2.452 3.238,-5.478 3.238,-5.478Z" style="fill:#463300;"/><ellipse cx="99.929" cy="121.032" rx="6.114" ry="9.516" style="fill:#764306;"/><path d="M89.842,131.354c5.584,0.948 9.582,4.87 8.923,8.754c-0.659,3.884 -5.727,6.268 -11.31,5.321c-5.584,-0.947 -9.582,-4.87 -8.923,-8.754c0.659,-3.884 5.727,-6.268 11.31,-5.321Z" style="fill:#eb8f46;"/><path d="M161.502,131.246c5.583,-0.953 10.653,1.426 11.316,5.309c0.664,3.883 -3.33,7.81 -8.912,8.763c-5.582,0.953 -10.653,-1.425 -11.316,-5.308c-0.663,-3.883 3.33,-7.81 8.912,-8.764Z" style="fill:#eb8f46;"/><ellipse cx="149.125" cy="121.032" rx="6.114" ry="9.516" style="fill:#764306;"/></svg>