<?xml version="1.0" encoding="UTF-8" standalone="no"?><!DOCTYPE svg PUBLIC "-//W3C//DTD SVG 1.1//EN" "http://www.w3.org/Graphics/SVG/1.1/DTD/svg11.dtd"><svg width="100%" height="100%" viewBox="0 0 250 250" version="1.1" xmlns="http://www.w3.org/2000/svg" xmlns:xlink="http://www.w3.org/1999/xlink" xml:space="preserve" xmlns:serif="http://www.serif.com/" style="fill-rule:evenodd;clip-rule:evenodd;stroke-linejoin:round;stroke-miterlimit:2;"><path d="M60.639,190.116c-6.081,-4.911 -7.219,-16.998 -4.023,-21.715c4.782,-7.059 19.699,-23.605 19.699,-23.605c-0,-0 -39.496,-8.876 -44.089,-41.696c-0,-0 -6.399,0.015 -1.327,-10.076c5.071,-10.092 6.349,-4.246 8.862,-12.161c2.513,-7.915 3.104,-19.079 8.887,-28.813c-0,-0 -17.226,-22.465 -3.684,-39.264c11.587,-14.375 32.596,14.82 32.596,14.82c-0,-0 1.8,-1.121 5.805,-2.053c0,-0 -4.266,-18.225 16.494,-18.225c13.082,0 15.001,17.79 15.001,17.681c-0,-0.109 14.763,3.623 14.763,3.623c0,-0 17.181,-26.435 33.461,-18.007c16.28,8.428 -0.236,43.166 -2.701,46.789l2.986,5.287c0,0 4.218,12.128 5.545,21.412c0,0 12.891,15.116 10.711,19.671c-2.18,4.556 -7.985,2.348 -7.985,2.348c-0,-0 2.038,26.715 -50.239,40.398c-0,0 16.371,-3.291 33.711,-14.186c1.637,-1.028 32.494,31.15 30.983,61.007c-2.405,47.504 -34.734,48.572 -34.734,48.572c-0,-0 -25.043,5.349 -33.137,-0.963c-1.623,-1.266 -2.527,-3.948 -2.488,-5.091c0.004,-0.089 -3.873,-0.208 -10.575,-1.155c-3.16,-0.446 -6.417,-1.334 -10.54,-3.422c0,0 -27.815,19.115 -41.873,6.416c-9.138,-10.737 7.227,-16.531 10.379,-17.394c-3.697,-3.374 -17.11,-13.87 -2.488,-30.198Z" style="fill:#c17b22;"/><path d="M116.832,23.135c2.837,0.674 8.977,2.216 11.83,2.934c2.083,-2.907 7.499,-9.921 14.34,-14.603c6.327,-4.33 13.815,-6.619 21.116,-2.839c7.331,3.795 9.1,12.201 7.992,21.336c-1.352,11.141 -6.817,23.245 -9.131,27.473l2.349,4.159c0.067,0.117 0.122,0.24 0.166,0.367c0,0 4.105,11.821 5.552,21.194c1.49,1.8 6.572,8.098 9.234,13.354c0.906,1.788 1.535,3.479 1.751,4.88c0.204,1.326 0.054,2.467 -0.376,3.365c-1.552,3.245 -4.362,4.137 -6.817,4.161c-0.379,0.004 -0.747,-0.014 -1.096,-0.047c-0.601,4.588 -3.319,13.932 -14.995,23.153c0.585,0.501 1.241,1.105 1.95,1.813c8.937,8.914 28.889,35.062 27.645,59.629c-0.999,19.735 -7.059,31.721 -13.865,39.038c-9.73,10.461 -21.143,11.553 -22.826,11.659c-1.574,0.322 -13.149,2.603 -22.831,2.037c-4.865,-0.284 -9.26,-1.343 -11.979,-3.463c-1.455,-1.135 -2.472,-3.113 -2.98,-4.775c-1.783,-0.148 -5.054,-0.458 -9.015,-1.018c-3.063,-0.433 -6.215,-1.249 -10.065,-3.067c-2.97,1.886 -11.477,6.944 -20.675,9.243c-8.102,2.026 -16.68,1.848 -22.867,-3.741c-0.073,-0.066 -0.141,-0.136 -0.205,-0.211c-2.839,-3.336 -3.56,-6.338 -3.189,-8.906c0.374,-2.59 1.915,-4.836 4.01,-6.652c2.125,-1.842 4.815,-3.233 7.031,-4.166c-2.745,-2.727 -6.145,-6.875 -6.977,-12.272c-0.722,-4.683 0.383,-10.373 5.653,-16.909c-2.473,-2.822 -4.033,-6.774 -4.638,-10.736c-0.742,-4.86 -0.009,-9.673 1.829,-12.386c3.628,-5.356 13.029,-16.123 17.483,-21.15c-5.145,-1.607 -14.983,-5.313 -23.891,-12.26c-8.334,-6.5 -15.838,-15.807 -18.107,-28.792c-0.789,-0.3 -1.671,-0.821 -2.362,-1.721c-1.219,-1.587 -2.189,-4.832 1.012,-11.203c2.299,-4.575 3.975,-6.213 5.263,-7.161c1.375,-1.014 2.249,-0.837 3.465,-4.669c2.446,-7.704 3.157,-18.416 8.368,-28c-1.852,-2.725 -6.125,-9.668 -7.779,-17.874c-1.478,-7.329 -0.89,-15.62 5.007,-22.935c5.467,-6.783 12.691,-5.664 19.417,-1.494c6.863,4.255 13.122,11.729 15.615,14.91c0.68,-0.278 1.552,-0.593 2.628,-0.909c-0.281,-3.358 -0.082,-9.863 4.752,-14.278c2.82,-2.576 7.247,-4.525 14.235,-4.525c6.847,0 11.117,4.11 13.685,8.708c1.964,3.516 2.893,7.287 3.288,9.349Zm38.359,111.807c-17.305,10.583 -33.347,13.794 -33.347,13.794c-1.193,0.24 -2.361,-0.513 -2.636,-1.699c-0.274,-1.186 0.445,-2.375 1.623,-2.683c50.03,-13.096 48.565,-38.051 48.565,-38.051c-0.058,-0.768 0.28,-1.512 0.897,-1.973c0.617,-0.461 1.427,-0.575 2.147,-0.301c-0,-0 1.076,0.401 2.352,0.388c0.993,-0.01 2.176,-0.292 2.803,-1.604c0.145,-0.302 0.014,-0.706 -0.1,-1.181c-0.222,-0.925 -0.666,-1.977 -1.229,-3.089c-2.944,-5.811 -9.064,-12.97 -9.064,-12.97c-0.276,-0.324 -0.455,-0.72 -0.515,-1.141c-1.205,-8.427 -4.844,-19.242 -5.378,-20.803l-2.885,-5.108c-0.421,-0.745 -0.383,-1.665 0.099,-2.372c1.425,-2.095 7.696,-14.996 9.12,-26.728c0.861,-7.098 0.103,-13.849 -5.593,-16.798c-5.724,-2.963 -11.547,-0.838 -16.506,2.557c-8.113,5.551 -14.034,14.678 -14.034,14.678c-0.525,0.807 -1.505,1.191 -2.438,0.955c-0,0 -11.901,-3.009 -14.281,-3.532c-0.063,-0.013 -0.137,-0.029 -0.184,-0.038l-0.015,0l-0.598,-0.157l-0.541,-0.32l-0.494,-0.552l-0.322,-0.851c-0.003,-0.023 -0.024,-0.192 -0.068,-0.482c-0.198,-1.291 -0.919,-5.258 -2.953,-8.9c-1.848,-3.308 -4.831,-6.403 -9.757,-6.403c-5.469,0 -8.993,1.332 -11.201,3.348c-4.963,4.534 -3.102,12.114 -3.102,12.114c0.136,0.581 0.036,1.193 -0.28,1.7c-0.315,0.508 -0.834,0.315 -1.416,0.451c-3.528,0.821 -5.112,2.325 -5.112,2.325c-1.005,0.625 -2.323,0.365 -3.015,-0.596c0,-0 -7.254,-10.118 -15.475,-15.215c-4.681,-2.902 -9.738,-4.227 -13.543,0.493c-4.936,6.124 -5.336,13.086 -4.099,19.221c1.933,9.585 7.817,17.262 7.817,17.262c0.56,0.73 0.619,1.727 0.149,2.518c-5.685,9.57 -6.206,20.564 -8.677,28.345c-1.263,3.98 -2.413,5.112 -3.584,5.946c-1.24,0.882 -2.714,1.174 -5.412,6.544c-1.09,2.169 -1.602,3.782 -1.7,5.001c-0.054,0.674 0.006,1.142 0.236,1.441c0.291,0.379 0.775,0.374 0.775,0.374c1.124,-0.003 2.078,0.825 2.234,1.938c2.188,15.633 12.75,25.52 22.703,31.542c10.105,6.114 19.651,8.27 19.651,8.27c0.78,0.176 1.408,0.752 1.651,1.513c0.242,0.762 0.062,1.595 -0.473,2.189c-0,0 -14.774,16.374 -19.508,23.361c-1.358,2.004 -1.654,5.592 -1.105,9.183c0.559,3.664 2.043,7.39 4.68,9.52c0.479,0.387 0.779,0.955 0.829,1.569c0.049,0.615 -0.156,1.223 -0.567,1.682c-5.224,5.833 -6.589,10.775 -5.958,14.868c0.962,6.242 6.272,10.328 8.287,12.167c0.605,0.552 0.862,1.391 0.671,2.188c-0.192,0.797 -0.803,1.427 -1.594,1.644c-1.433,0.392 -5.878,1.888 -8.918,4.524c-1.249,1.083 -2.282,2.351 -2.505,3.895c-0.222,1.536 0.408,3.246 2.07,5.235c5.052,4.468 12.067,4.26 18.647,2.615c10.666,-2.667 20.332,-9.315 20.332,-9.315c0.678,-0.466 1.557,-0.525 2.291,-0.153c3.848,1.949 6.888,2.785 9.837,3.201c6.024,0.851 9.762,1.032 10.447,1.124l0.525,0.119l0.476,0.225l0.538,0.468l0.421,0.768l0.103,0.757c-0.025,0.73 0.585,2.429 1.623,3.239c2.925,2.281 8.335,2.697 13.732,2.59c8.749,-0.173 17.551,-2.054 17.551,-2.054c0.13,-0.027 0.262,-0.044 0.395,-0.048c0,0 10.77,-0.425 19.896,-10.236c6.301,-6.774 11.741,-17.931 12.666,-36.201c1.174,-23.203 -17.888,-47.797 -26.329,-56.216c-0.815,-0.813 -1.739,-1.597 -2.328,-2.079Zm-39.499,-107.876c0.079,-0.014 0.134,-0.026 0.149,-0.033c1.005,-0.487 1.269,-1.276 1.269,-2.024l-0.173,0.863l-0.324,0.547l-0.61,0.528l-0.311,0.119Zm-2.979,-2.537c-0.036,0.009 -0.056,0.019 -0.058,0.032c-0.016,0.077 -0.045,0.225 -0.045,0.448l0.103,-0.48Z" style="fill:#463300;"/><path d="M164.923,60.267c0,0 8.2,-13.582 29.019,-13.582c20.818,-0 39.539,16.288 39.539,39.255c0,22.967 -16.126,30.672 -31.933,30.672c0,0 -9.171,-16.397 6.636,-25.859c-0,-0 -16.067,7.215 -5.877,28.168c10.19,20.954 22.015,34.147 22.015,54.292c-0,20.145 -14.266,54.207 -49.398,55.661c-0,-0 11.363,-12.929 11.363,-34.093c0,-21.163 -10.368,-43.307 -30.617,-62.355c-0,0 16.742,-11.133 16.742,-25.765c0,-0 7.015,0.614 7.015,-5.466c0.02,-3.444 -11.317,-15.662 -11.328,-19.772c0,-6.01 -2.88,-16.164 -4.775,-19.616l1.599,-1.54Z" style="fill:#a36515;"/><path d="M163.17,58.832l0.001,-0.001c1.324,-2.008 10.322,-14.396 30.771,-14.396c22.007,-0 41.789,17.227 41.789,41.505c0,9.846 -2.828,17.054 -7.231,22.184c-5.898,6.872 -14.71,10.046 -23.767,10.636c4.976,10.094 10.299,18.395 14.414,26.602c4.388,8.75 7.425,17.403 7.425,27.851c-0,20.988 -14.953,56.395 -51.555,57.909c-0.9,0.037 -1.735,-0.466 -2.123,-1.278c-0.389,-0.813 -0.255,-1.779 0.34,-2.455c-0,-0 10.803,-12.378 10.803,-32.608c0,-20.62 -10.179,-42.157 -29.909,-60.716c-0.5,-0.47 -0.758,-1.143 -0.701,-1.828c0.058,-0.684 0.425,-1.304 0.997,-1.684c-0,-0 5.721,-3.812 10.301,-9.86c2.935,-3.876 5.437,-8.688 5.437,-14.032c0,-0.631 0.265,-1.233 0.73,-1.659c0.465,-0.427 1.088,-0.638 1.717,-0.583c-0,0 0.83,0.064 1.828,-0.137c1.195,-0.241 2.74,-0.929 2.74,-3.087l-0,-0.014c0.003,-0.438 -0.408,-1.048 -0.869,-1.848c-1.056,-1.834 -2.714,-4.138 -4.369,-6.474c-2.068,-2.919 -4.125,-5.889 -5.183,-8.138c-0.608,-1.294 -0.904,-2.429 -0.907,-3.292l0,-0.006c0,-5.677 -2.707,-15.272 -4.497,-18.533c-0.49,-0.891 -0.321,-1.999 0.412,-2.704l1.406,-1.354Zm33.643,49.849c-0.44,-3.652 -0.127,-7.969 2.223,-12.073c3.123,-5.645 8.226,-7.908 8.226,-7.908c1.087,-0.488 2.366,-0.044 2.917,1.012c0.551,1.057 0.183,2.359 -0.84,2.971c-5.507,3.297 -7.574,7.548 -8.059,11.487c-0.188,1.653 -0.138,3.505 0.237,5.57c0.38,1.958 0.987,3.58 1.431,4.601c8.367,-0.253 16.705,-2.817 22.138,-9.148c3.813,-4.443 6.145,-10.725 6.145,-19.253c0,-21.655 -17.66,-37.005 -37.289,-37.005c-19.386,-0 -27.092,12.495 -27.092,12.495c-0.102,0.168 -0.225,0.322 -0.366,0.459l-0.435,0.418c1.931,4.55 4.3,13.529 4.3,19.11c0.002,0.565 0.411,1.316 0.911,2.234c1.055,1.939 2.706,4.286 4.351,6.607c2.056,2.902 4.099,5.77 5.143,7.837c0.639,1.265 0.927,2.348 0.923,3.1c-0,5.636 -4.317,7.174 -7.119,7.579c-0.543,5.526 -3.143,10.539 -6.246,14.636c-3.182,4.202 -6.866,7.423 -9.164,9.237c19.489,19.113 29.389,41.113 29.389,62.134c0,14.872 -5.4,25.84 -8.932,31.424c30.178,-4.126 42.467,-34.629 42.467,-52.992c-0,-9.697 -2.875,-17.713 -6.948,-25.834c-4.233,-8.443 -9.741,-16.988 -14.841,-27.474c-2.061,-4.239 -3.111,-7.966 -3.47,-11.224Z" style="fill:#463300;"/><path d="M99.473,148.171c-5.983,0.295 -14.968,0.454 -15.015,9.871c-0.066,13.099 -2.257,27.168 -9.413,32.057c-3.338,2.281 0.465,11.911 2.174,17.58c3.204,10.624 10.775,24.853 37.817,25.949c0,0 0.096,-9.307 13.035,-8.909c0,0 -9.905,-22.254 8.455,-36.417l-17.062,-21.291c-0,0 0.868,-19.871 -19.991,-18.84Z" style="fill:#f0b956;"/><path d="M82.542,151.596l0.095,5.534c-0,-0 18.139,-7.308 21.908,8.749c1.979,8.428 -11.013,9.914 -16.92,10.675c-3.167,0.407 -6.973,0.111 -10.321,0.131c-3.181,0.02 -5.913,0.412 -8.624,-1.21c-3.868,-2.315 -3.082,-10.027 5.556,-14.961c4.065,-2.321 8.401,-3.384 8.401,-3.384" style="fill:#a36515;"/><path d="M80.358,155.449l-0.066,-3.814c-0.021,-1.242 0.97,-2.267 2.211,-2.288c1.242,-0.021 2.267,0.969 2.289,2.211l0.043,2.536c1.176,-0.297 2.621,-0.588 4.202,-0.747c3.86,-0.389 8.467,0.046 12.112,2.786c2.46,1.849 4.532,4.74 5.587,9.232c1.056,4.497 -0.984,7.56 -4.436,9.624c-4.136,2.474 -10.611,3.31 -14.388,3.796c-3.251,0.419 -7.157,0.129 -10.594,0.15c-3.62,0.022 -6.708,0.317 -9.793,-1.53c-1.718,-1.027 -2.854,-2.748 -3.204,-4.887c-0.652,-3.987 1.649,-9.874 8.799,-13.957c2.691,-1.537 5.494,-2.557 7.238,-3.112Zm3.119,3.768c-0.098,0.04 -0.2,0.072 -0.304,0.098c-0,-0 -4.037,0.992 -7.821,3.153c-4.324,2.47 -6.447,5.651 -6.631,8.316c-0.082,1.191 0.249,2.242 1.114,2.76c2.337,1.398 4.713,0.908 7.455,0.891c3.26,-0.02 6.964,0.284 10.048,-0.113c2.807,-0.361 7.303,-0.87 10.857,-2.315c2.643,-1.074 4.859,-2.635 4.16,-5.614c-0.755,-3.215 -2.148,-5.339 -3.909,-6.663c-2.686,-2.018 -6.114,-2.193 -8.957,-1.906c-3.378,0.34 -6.012,1.393 -6.012,1.393Z" style="fill:#463300;"/><path d="M95.607,22.033c1.235,0.13 2.132,1.238 2.002,2.473c-0.13,1.235 -1.239,2.132 -2.474,2.002c0,-0 -6.86,-0.742 -12.347,1.207c-3.075,1.093 -5.748,3.094 -5.748,7.028c-0,2.009 1.415,2.929 3.069,3.378c3.327,0.902 7.71,0.196 8.796,-0.403c1.087,-0.6 2.457,-0.204 3.057,0.883c0.6,1.087 0.204,2.457 -0.883,3.057c-1.502,0.828 -7.547,2.053 -12.148,0.806c-3.633,-0.985 -6.391,-3.309 -6.391,-7.721c-0,-6.18 3.912,-9.552 8.741,-11.268c6.368,-2.262 14.326,-1.442 14.326,-1.442Z" style="fill:#463300;"/><path d="M155.142,19.346c1.198,-0.324 2.435,0.386 2.759,1.584c0.324,1.199 -0.386,2.436 -1.584,2.76c-0,-0 -9.978,2.617 -10.765,11.738c2.656,1.859 9.446,6.963 12.299,12.396c0.578,1.099 0.154,2.46 -0.945,3.038c-1.1,0.577 -2.461,0.154 -3.038,-0.946c-3.145,-5.986 -11.823,-11.432 -11.823,-11.432c-0.649,-0.413 -1.042,-1.129 -1.042,-1.898c-0,-13.327 14.139,-17.24 14.139,-17.24Z" style="fill:#463300;"/><path d="M116.852,68.106c-1.12,0.536 -2.464,0.061 -3,-1.059c-0.536,-1.12 -0.062,-2.465 1.059,-3.001c-0,0 4.952,-2.344 9.687,-0.208c2.015,0.91 4.031,2.603 5.563,5.693c0.552,1.113 0.096,2.464 -1.017,3.016c-1.112,0.551 -2.463,0.095 -3.015,-1.017c-0.949,-1.915 -2.133,-3.026 -3.382,-3.59c-2.881,-1.3 -5.895,0.166 -5.895,0.166Z" style="fill:#463300;"/><path d="M69.566,63.722c0.904,0.851 0.948,2.276 0.097,3.18c-0.851,0.905 -2.276,0.948 -3.181,0.097c0,0 -1.427,-1.397 -3.209,-1.224c-1.308,0.126 -2.608,1.19 -3.888,3.755c-0.555,1.111 -1.907,1.563 -3.018,1.008c-1.111,-0.555 -1.563,-1.907 -1.008,-3.018c2.305,-4.618 5.126,-5.997 7.481,-6.225c3.709,-0.358 6.726,2.427 6.726,2.427Z" style="fill:#463300;"/><path d="M52.449,23.851c-1.218,-0.239 -2.014,-1.421 -1.776,-2.64c0.238,-1.219 1.421,-2.015 2.64,-1.777c-0,0 3.439,0.662 6.874,2.778c3.627,2.233 7.196,6.027 7.196,12.127c-0,0.755 -0.379,1.459 -1.008,1.876c-0,-0 -10.846,6.505 -15.939,17.248c-0.532,1.122 -1.39,1.945 -2.512,1.413c-1.122,-0.532 -2.058,-2.27 -1.526,-3.392c4.575,-9.651 13.453,-16.064 16.422,-18.26c-0.406,-3.547 -2.723,-5.783 -4.993,-7.181c-2.691,-1.657 -5.378,-2.192 -5.378,-2.192Z" style="fill:#463300;"/><ellipse cx="88.498" cy="116.903" rx="24.741" ry="19.157" style="fill:#f0b956;"/><path d="M82.965,105.96c0.172,-1.23 1.31,-2.088 2.54,-1.916c1.23,0.172 2.089,1.311 1.916,2.541c0,-0 -1.595,10.661 2.108,16.849c0.638,1.066 0.29,2.449 -0.775,3.086c-1.066,0.638 -2.449,0.291 -3.086,-0.775c-4.355,-7.277 -2.703,-19.785 -2.703,-19.785Z" style="fill:#463300;"/><path d="M72.618,117.053c-0.427,-1.166 0.172,-2.46 1.338,-2.887c1.166,-0.428 2.46,0.172 2.887,1.338c0,-0 2.62,6.828 11.253,6.828c8.757,-0 11.892,-7.062 11.892,-7.062c0.493,-1.14 1.818,-1.666 2.958,-1.174c1.14,0.493 1.666,1.818 1.173,2.958c0,0 -4.139,9.778 -16.023,9.778c-12.008,-0 -15.478,-9.779 -15.478,-9.779Z" style="fill:#463300;"/><path d="M105.016,168.378c-0,-0 3.057,30.765 -13.875,30.765c-16.932,-0 -22.418,-23.724 -22.418,-23.724c-0,0 2.842,1.929 20.688,0.135c15.524,-1.561 15.203,-6.709 15.605,-7.176Z" style="fill:#d06a1c;"/><path d="M66.534,175.942c-0.001,-0.006 -0.002,-0.011 -0.003,-0.016c-0,0 0.001,0.005 0.003,0.016Zm0,-0c0.134,0.561 0.473,1.032 0.925,1.339l1.735,-1.189l0.762,-2.555c-0.009,-0.006 -0.167,-0.096 -0.167,-0.096c0,-0 4.267,1.396 19.397,-0.126c12.019,-1.208 13.244,-4.329 13.572,-5.351l0.214,-0.545l0.338,-0.509c0.587,-0.682 1.525,-0.949 2.383,-0.678c0.858,0.271 1.473,1.028 1.562,1.923c-0,0 1.133,11.573 -1.769,20.831c-2.152,6.869 -6.47,12.407 -14.345,12.407c-7.55,-0 -13.1,-4.155 -16.992,-9.232c-5.398,-7.043 -7.516,-15.804 -7.615,-16.219Zm5.428,2.438c1.027,2.94 2.865,7.268 5.759,11.043c3.091,4.033 7.423,7.47 13.42,7.47c5.672,-0 8.501,-4.305 10.051,-9.252c1.417,-4.522 1.772,-9.647 1.796,-13.44c-2.424,1.461 -6.47,2.9 -13.352,3.592c-9.317,0.937 -14.665,0.869 -17.674,0.587Z" style="fill:#463300;"/><path d="M71.801,187.274c0.165,-1.23 1.299,-2.095 2.53,-1.93c1.23,0.166 2.095,1.299 1.93,2.53c-0,-0 -4.377,31.67 21.13,42.554c1.143,0.487 1.674,1.81 1.187,2.952c-0.487,1.143 -1.81,1.674 -2.953,1.187c-28.429,-12.13 -23.824,-47.293 -23.824,-47.293Z" style="fill:#463300;"/><path d="M167.274,188.48c0.783,0.963 0.637,2.382 -0.327,3.165c-0.964,0.783 -2.382,0.637 -3.165,-0.327c-0,-0 -10.42,-12.775 -24.048,-2.675c-5.717,4.236 -9.06,8.668 -10.728,13.3c-2.53,7.029 -1.231,14.439 1.067,22.051c0.359,1.189 -0.439,2.2 -1.628,2.559c-1.188,0.359 -2.32,-0.069 -2.679,-1.258c-2.593,-8.584 -3.847,-16.95 -0.994,-24.876c1.922,-5.338 5.695,-10.509 12.282,-15.391c17.132,-12.696 30.22,3.452 30.22,3.452Z" style="fill:#463300;"/><path d="M144.905,226.019c1.143,0.487 1.674,1.81 1.187,2.953c-0.487,1.142 -1.81,1.674 -2.952,1.186c-0,0 -6.565,-2.805 -13.18,-3.274c-3.524,-0.25 -7.104,0.085 -9.409,2.311c-1.476,1.424 -2.33,3.621 -2.397,6.802c-0.026,1.241 -1.055,2.228 -2.296,2.202c-1.242,-0.026 -2.229,-1.055 -2.203,-2.297c0.099,-4.691 1.594,-7.845 3.771,-9.945c2.179,-2.104 5.111,-3.176 8.32,-3.513c8.565,-0.899 19.159,3.575 19.159,3.575Z" style="fill:#463300;"/><path d="M124.274,240.78c1.132,0.512 1.634,1.847 1.122,2.978c-0.512,1.131 -1.846,1.634 -2.978,1.122c0,-0 -3.39,-1.533 -3.74,-5.249c-0.189,-1.999 0.494,-4.885 4.019,-8.604c0.854,-0.901 2.279,-0.939 3.181,-0.085c0.901,0.854 0.939,2.28 0.085,3.181c-2.156,2.274 -2.921,3.863 -2.805,5.085c0.105,1.112 1.116,1.572 1.116,1.572Z" style="fill:#463300;"/><path d="M132.709,241.427c1.044,0.554 1.487,1.836 0.988,2.924c-0.378,0.825 -1.193,1.312 -2.045,1.313c-0.314,-0 -0.633,-0.066 -0.937,-0.205c-0,-0 -1.971,-0.775 -2.649,-3.43c-0.456,-1.788 -0.361,-4.863 2.833,-9.712c0.683,-1.037 2.08,-1.325 3.117,-0.641c1.037,0.683 1.324,2.079 0.641,3.116c-1.575,2.392 -2.213,4.096 -2.288,5.337c-0.047,0.783 0.304,1.253 0.34,1.298Z" style="fill:#463300;"/><path d="M65.832,239.952c0.943,0.768 1.105,2.154 0.357,3.121c-0.443,0.572 -1.108,0.871 -1.779,0.872c-0.482,0 -0.968,-0.153 -1.378,-0.471c-0,-0 -2.572,-1.912 -2.286,-5.498c0.152,-1.895 1.142,-4.461 4.503,-7.448c0.928,-0.825 2.352,-0.741 3.177,0.187c0.825,0.928 0.741,2.352 -0.188,3.177c-2.071,1.841 -2.913,3.274 -3.006,4.442c-0.076,0.948 0.482,1.516 0.6,1.618Z" style="fill:#463300;"/><path d="M56.487,237.524c0.461,1.153 -0.101,2.463 -1.254,2.925c-1.153,0.461 -2.463,-0.1 -2.924,-1.253c-0,-0 -1.131,-2.717 -0.061,-5.964c0.66,-2.006 2.151,-4.282 5.479,-6.124c1.087,-0.601 2.457,-0.208 3.059,0.879c0.601,1.086 0.207,2.457 -0.879,3.058c-2,1.107 -2.988,2.39 -3.385,3.595c-0.518,1.57 -0.035,2.884 -0.035,2.884Z" style="fill:#463300;"/><ellipse cx="64.054" cy="91.212" rx="5.581" ry="8.521" style="fill:#433100;"/><ellipse cx="118.784" cy="94.236" rx="6.458" ry="8.055" style="fill:#433100;"/><ellipse cx="85.584" cy="101.29" rx="10.617" ry="8.49" style="fill:#433100;"/><path d="M49.497,98.183c4.757,0.733 8.17,4.241 7.617,7.829c-0.552,3.588 -4.863,5.907 -9.62,5.174c-4.757,-0.733 -8.171,-4.241 -7.618,-7.829c0.553,-3.588 4.864,-5.907 9.621,-5.174Z" style="fill:#eb8f46;"/><path d="M135.626,99.816c5.563,-1.058 10.677,1.225 11.413,5.095c0.736,3.871 -3.183,7.871 -8.747,8.929c-5.563,1.058 -10.677,-1.225 -11.413,-5.095c-0.736,-3.87 3.183,-7.871 8.747,-8.929Z" style="fill:#eb8f46;"/><path d="M132.494,152.284c-0,0 -4.282,15.317 -25.084,18.504c-9.491,1.454 -9.053,13.078 -9.053,13.078c0,-0 -0.711,10.356 15.38,10.356c30.689,-0 40.795,-26.809 40.736,-26.847" style="fill:#c17b22;"/><path d="M152.315,166.738c0.06,-0.205 0.151,-0.405 0.274,-0.593c0.679,-1.04 2.075,-1.333 3.114,-0.654l0.485,0.427l0.359,0.584l0.176,0.849l-0.071,0.59c-0.019,0.073 -0.141,0.456 -0.408,1.08c-1.967,4.596 -13.465,27.451 -42.507,27.451c-7.246,-0 -11.426,-1.995 -13.881,-4.233c-3.755,-3.424 -3.778,-7.651 -3.75,-8.394c-0.01,-0.589 -0.003,-3.569 1.094,-6.714c1.309,-3.754 4.1,-7.683 9.869,-8.567c19.181,-2.939 23.258,-16.886 23.258,-16.886c0.334,-1.196 1.577,-1.895 2.773,-1.561c1.196,0.334 1.895,1.577 1.561,2.773c-0,-0 -4.486,16.687 -26.91,20.122c-3.722,0.57 -5.458,3.179 -6.302,5.601c-0.929,2.663 -0.844,5.168 -0.844,5.168c0.003,0.079 0.002,0.159 -0.003,0.239c-0,-0 -0.116,2.704 2.286,4.894c1.907,1.738 5.221,3.058 10.849,3.058c26.198,-0 36.596,-20.575 38.37,-24.721c0.092,-0.215 0.177,-0.432 0.208,-0.513Z" style="fill:#463300;"/><path d="M96.94,179.637c-0.403,-1.175 0.222,-2.456 1.397,-2.86c1.174,-0.403 2.455,0.222 0.731,4.378l2.112,-3.025c-0.003,-0.009 -0.059,-0.135 -0.059,-0.135c0,0 0.663,0.509 1.656,0.563c1.2,0.065 2.844,-0.205 5.107,-1.029c1.167,-0.424 2.459,0.179 2.884,1.346c0.424,1.167 -0.178,2.459 -1.345,2.883c-6.147,2.236 -9.19,1.117 -10.632,0.138c-1.518,-1.029 -1.851,-2.259 -1.851,-2.259Z" style="fill:#463300;"/><path d="M103.763,191.732c-1.225,-0.206 -2.052,-1.367 -1.847,-2.592c0.206,-1.225 1.368,-2.052 2.592,-1.846c0,-0 3.739,0.623 7.224,-1.095c1.114,-0.55 2.464,-0.091 3.013,1.023c0.549,1.113 0.091,2.463 -1.023,3.013c-4.803,2.368 -9.959,1.497 -9.959,1.497Z" style="fill:#463300;"/><path d="M67.2,174.093c0,-0 1.604,2.427 6.803,2.476c5.2,0.05 7.499,12.543 -0.404,13.364c-6.152,0.639 -10.124,1.866 -13.68,-0.909c-1.014,-0.791 -2.662,-2.981 -3.457,-5.352" style="fill:#c17b22;"/><path d="M65.323,175.333c-0.684,-1.036 -0.399,-2.433 0.637,-3.117c1.036,-0.685 3.109,0.623 3.109,0.623c-0,0 1.541,1.448 4.956,1.48c2.97,0.029 5.548,2.625 6.526,6.136c1.375,4.94 -0.367,11.056 -6.72,11.716c-3.151,0.328 -5.745,0.797 -8.005,0.838c-2.748,0.049 -5.077,-0.483 -7.292,-2.212c-1.219,-0.951 -3.249,-3.556 -4.205,-6.41c-0.394,-1.178 0.241,-2.454 1.419,-2.848c1.177,-0.395 2.453,0.241 2.848,1.418c0.633,1.889 1.9,3.663 2.707,4.293c1.342,1.047 2.777,1.289 4.442,1.259c2.153,-0.038 4.62,-0.502 7.621,-0.814c3.138,-0.326 3.529,-3.593 2.85,-6.033c-0.241,-0.866 -0.625,-1.665 -1.153,-2.237c-0.308,-0.333 -0.655,-0.602 -1.081,-0.606c-6.704,-0.064 -8.659,-3.486 -8.659,-3.486Z" style="fill:#463300;"/><path d="M74.16,187.425c1.223,-0.216 2.391,0.603 2.606,1.826c0.215,1.223 -0.603,2.39 -1.826,2.606c0,-0 -5.315,1.114 -11.549,-4.411c-0.929,-0.824 -1.015,-2.247 -0.191,-3.176c0.824,-0.929 2.247,-1.015 3.176,-0.191c4.272,3.786 7.784,3.346 7.784,3.346Z" style="fill:#463300;"/><path d="M75.406,179.033c1.179,-0.391 2.453,0.248 2.845,1.427c0.391,1.178 -0.248,2.453 -1.427,2.844c0,0 -5.443,1.835 -10.759,-1.259c-1.073,-0.625 -1.437,-2.004 -0.812,-3.077c0.624,-1.073 2.003,-1.437 3.076,-0.812c3.5,2.037 7.077,0.877 7.077,0.877Z" style="fill:#463300;"/></svg>